<svg width="122" height="24" viewBox="0 0 122 24" fill="none" xmlns="http://www.w3.org/2000/svg">
<path d="M4.15805 1H115.269H116.812L118.356 1.5C118.356 1.5 117.485 4.27778 117.485 5.5C117.485 6.72222 119.072 6.77778 119.072 8C119.072 9.22222 119.072 13 117.528 14.2222L116.812 13.5726C117.805 13.5511 120.072 12.9979 120.072 16C121.615 18.4444 120.615 18.2778 119.072 19.5C117.528 20.7222 120.572 20.2778 120.572 21.5C120.572 22.4778 117.841 22.5926 116.812 23H115.269H4.15805L4.15805 21.7778C2.61481 24.2222 2.61484 21.7778 2.61484 21.7778C2.61484 21.7778 2.61486 19.3333 2.61486 18.1111C2.61486 16.8889 1.84025 17.7222 1.84019 16.5C1.84013 15.2778 1.94197 11.9857 3.48518 10.7634L4.15805 10.4274C3.16542 10.4489 1.84019 11.3355 1.84019 8.33333C0.296975 5.88889 1.07163 7.11111 2.61484 5.88889C4.15805 4.66667 1.07163 4.66667 1.07163 3.44444C1.07163 2.46667 3.12924 1.40741 4.15805 1Z" fill="#582C0D"/>
<path d="M4.15805 1H115.269V23H4.15805V1Z" fill="#582C0D"/>
<path d="M12.4173 7.83333C12.4173 9.18336 6.89435 10.7634 3.48518 10.7634C0.0760169 10.7634 4.07166 10.35 4.07166 9C4.07166 7.64997 2.83533 5.38889 6.2445 5.38889C9.65366 5.38889 12.4173 6.4833 12.4173 7.83333Z" fill="#582C0D"/>
<path d="M12.4173 17.6111C12.4173 18.9611 9.65366 20.0556 6.2445 20.0556C2.83533 20.0556 2.61486 19.4611 2.61486 18.1111C2.61486 16.7611 2.83533 15.1667 6.2445 15.1667C9.65366 15.1667 12.4173 16.2611 12.4173 17.6111Z" fill="#582C0D"/>
<path d="M4.15805 1V10.4274M4.15805 1C3.12924 1.40741 1.07163 2.46667 1.07163 3.44444C1.07163 4.66667 4.15805 4.66667 2.61484 5.88889C1.07163 7.11111 0.296975 5.88889 1.84019 8.33333C1.84019 11.3355 3.16542 10.4489 4.15805 10.4274M4.15805 1H115.269M4.15805 1V23M115.269 1V23M115.269 1H116.812L118.356 1.5M115.269 23H116.812M115.269 23H4.15805M4.15805 23L4.15805 21.7778M4.15805 21.7778L3.48518 10.7634M4.15805 21.7778C2.61481 24.2222 2.61484 21.7778 2.61484 21.7778C2.61484 21.7778 2.61486 19.3333 2.61486 18.1111M3.48518 10.7634L4.15805 10.4274M3.48518 10.7634C3.84384 10.4794 4.45859 10.4209 4.15805 10.4274M3.48518 10.7634C1.94197 11.9857 1.84013 15.2778 1.84019 16.5C1.84025 17.7222 2.61486 16.8889 2.61486 18.1111M3.48518 10.7634C6.89435 10.7634 12.4173 9.18336 12.4173 7.83333C12.4173 6.4833 9.65366 5.38889 6.2445 5.38889C2.83533 5.38889 4.07166 7.64997 4.07166 9C4.07166 10.35 0.0760169 10.7634 3.48518 10.7634ZM2.61486 18.1111C2.61486 19.4611 2.83533 20.0556 6.2445 20.0556C9.65366 20.0556 12.4173 18.9611 12.4173 17.6111C12.4173 16.2611 9.65366 15.1667 6.2445 15.1667C2.83533 15.1667 2.61486 16.7611 2.61486 18.1111ZM116.812 23V13.5726M116.812 23C117.841 22.5926 120.572 22.4778 120.572 21.5C120.572 20.2778 117.528 20.7222 119.072 19.5C120.615 18.2778 121.615 18.4444 120.072 16M118.356 1.5L117.528 14.2222M118.356 1.5C118.356 1.5 117.485 4.27778 117.485 5.5C117.485 6.72222 119.072 6.77778 119.072 8C119.072 9.22222 119.072 13 117.528 14.2222M117.528 14.2222L116.812 13.5726M117.528 14.2222C117.17 14.5063 116.512 13.5791 116.812 13.5726M116.812 13.5726C117.805 13.5511 120.072 12.9979 120.072 16M120.072 16C120.072 17.35 120.765 17.6111 117.356 17.6111M120.072 16C120.072 14.65 120.765 12.7222 117.356 12.7222" stroke="#582C0D" stroke-width="2"/>
</svg>
