<svg width="56" height="56" viewBox="0 0 56 56" fill="none" xmlns="http://www.w3.org/2000/svg">
<path d="M56 28C56 43.464 43.464 56 28 56C12.536 56 0 43.464 0 28C0 12.536 12.536 0 28 0C43.464 0 56 12.536 56 28Z" fill="#582C0D"/>
<mask id="path-2-inside-1" fill="white">
<path d="M28.3127 8C19.1862 8 11.5013 14.2256 9.27931 22.6648L8.76024 21.7639C8.67583 21.6119 8.55082 21.4864 8.39918 21.4014C8.24754 21.3163 8.07524 21.2751 7.90154 21.2824C7.73882 21.2886 7.58055 21.3372 7.44229 21.4232C7.30402 21.5092 7.19055 21.6298 7.11304 21.773C7.03552 21.9162 6.99665 22.0771 7.00023 22.2399C7.00381 22.4027 7.04973 22.5617 7.13347 22.7014L8.79137 25.5695C8.91582 25.7845 9.12049 25.9413 9.36044 26.0055C9.6004 26.0697 9.85602 26.036 10.0712 25.9119L12.943 24.2549C13.0531 24.1952 13.1501 24.1141 13.2284 24.0163C13.3066 23.9185 13.3644 23.806 13.3985 23.6854C13.4325 23.5649 13.442 23.4387 13.4265 23.3144C13.411 23.1902 13.3707 23.0703 13.308 22.9618C13.2454 22.8533 13.1617 22.7585 13.0618 22.683C12.9619 22.6074 12.8479 22.5526 12.7265 22.5219C12.605 22.4911 12.4787 22.485 12.3549 22.5039C12.2311 22.5228 12.1123 22.5662 12.0055 22.6318L11.0855 23.1637C13.0848 15.517 20.0286 9.87484 28.3127 9.87484C29.878 9.87484 31.3935 10.0743 32.8378 10.4525C32.9578 10.4871 33.0836 10.4974 33.2076 10.4827C33.3317 10.468 33.4516 10.4287 33.5602 10.3671C33.6689 10.3054 33.7641 10.2227 33.8403 10.1237C33.9166 10.0247 33.9722 9.91146 34.0041 9.79066C34.0359 9.66986 34.0433 9.54392 34.0258 9.42023C34.0083 9.29653 33.9662 9.1776 33.9021 9.07039C33.8379 8.96318 33.753 8.86984 33.6523 8.79591C33.5516 8.72198 33.4372 8.66895 33.3157 8.63989C31.7181 8.2215 30.039 8 28.3127 8V8Z"/>
</mask>
<path d="M28.3127 8C19.1862 8 11.5013 14.2256 9.27931 22.6648L8.76024 21.7639C8.67583 21.6119 8.55082 21.4864 8.39918 21.4014C8.24754 21.3163 8.07524 21.2751 7.90154 21.2824C7.73882 21.2886 7.58055 21.3372 7.44229 21.4232C7.30402 21.5092 7.19055 21.6298 7.11304 21.773C7.03552 21.9162 6.99665 22.0771 7.00023 22.2399C7.00381 22.4027 7.04973 22.5617 7.13347 22.7014L8.79137 25.5695C8.91582 25.7845 9.12049 25.9413 9.36044 26.0055C9.6004 26.0697 9.85602 26.036 10.0712 25.9119L12.943 24.2549C13.0531 24.1952 13.1501 24.1141 13.2284 24.0163C13.3066 23.9185 13.3644 23.806 13.3985 23.6854C13.4325 23.5649 13.442 23.4387 13.4265 23.3144C13.411 23.1902 13.3707 23.0703 13.308 22.9618C13.2454 22.8533 13.1617 22.7585 13.0618 22.683C12.9619 22.6074 12.8479 22.5526 12.7265 22.5219C12.605 22.4911 12.4787 22.485 12.3549 22.5039C12.2311 22.5228 12.1123 22.5662 12.0055 22.6318L11.0855 23.1637C13.0848 15.517 20.0286 9.87484 28.3127 9.87484C29.878 9.87484 31.3935 10.0743 32.8378 10.4525C32.9578 10.4871 33.0836 10.4974 33.2076 10.4827C33.3317 10.468 33.4516 10.4287 33.5602 10.3671C33.6689 10.3054 33.7641 10.2227 33.8403 10.1237C33.9166 10.0247 33.9722 9.91146 34.0041 9.79066C34.0359 9.66986 34.0433 9.54392 34.0258 9.42023C34.0083 9.29653 33.9662 9.1776 33.9021 9.07039C33.8379 8.96318 33.753 8.86984 33.6523 8.79591C33.5516 8.72198 33.4372 8.66895 33.3157 8.63989C31.7181 8.2215 30.039 8 28.3127 8V8Z" fill="white"/>
<path d="M9.27931 22.6648L7.54639 23.6633L9.97486 27.8779L11.2134 23.174L9.27931 22.6648ZM8.76024 21.7639L7.01177 22.7349L7.01944 22.7487L7.02733 22.7624L8.76024 21.7639ZM7.90154 21.2824L7.97831 23.2809L7.98492 23.2807L7.90154 21.2824ZM7.13347 22.7014L8.865 21.7005L8.85698 21.6866L8.84875 21.6729L7.13347 22.7014ZM8.79137 25.5695L7.05983 26.5704L7.0605 26.5715L8.79137 25.5695ZM10.0712 25.9119L11.0705 27.6443L11.0707 27.6442L10.0712 25.9119ZM12.943 24.2549L11.9899 22.4966L11.9665 22.5093L11.9435 22.5226L12.943 24.2549ZM13.2284 24.0163L11.6664 22.7671L13.2284 24.0163ZM12.0055 22.6318L13.0065 24.3633L13.0296 24.35L13.0522 24.336L12.0055 22.6318ZM11.0855 23.1637L9.15056 22.6577L7.93862 27.293L12.0865 24.8952L11.0855 23.1637ZM32.8378 10.4525L33.3919 8.53078L33.3682 8.52397L33.3445 8.51774L32.8378 10.4525ZM33.3157 8.63989L32.809 10.5746L32.8296 10.58L32.8503 10.585L33.3157 8.63989ZM28.3127 6C18.2545 6 9.79258 12.8605 7.34522 22.1555L11.2134 23.174C13.2101 15.5907 20.1178 10 28.3127 10V6ZM11.0122 21.6663L10.4932 20.7654L7.02733 22.7624L7.54639 23.6633L11.0122 21.6663ZM10.5087 20.7929C10.2442 20.3166 9.8525 19.9234 9.37741 19.6569L7.42095 23.1458C7.24914 23.0495 7.10746 22.9072 7.01177 22.7349L10.5087 20.7929ZM9.37741 19.6569C8.90234 19.3905 8.36249 19.2614 7.81816 19.2841L7.98492 23.2807C7.78799 23.2889 7.59274 23.2422 7.42095 23.1458L9.37741 19.6569ZM7.82476 19.2839C7.31457 19.3035 6.81869 19.4557 6.3858 19.725L8.49877 23.1214C8.3424 23.2187 8.16308 23.2738 7.97831 23.2809L7.82476 19.2839ZM6.3858 19.725C5.95272 19.9945 5.59712 20.3721 5.35418 20.8209L8.8719 22.725C8.78398 22.8874 8.65533 23.024 8.49877 23.1214L6.3858 19.725ZM5.35418 20.8209C5.11128 21.2696 4.98949 21.7739 5.00071 22.2839L8.99974 22.1959C9.0038 22.3803 8.95977 22.5627 8.8719 22.725L5.35418 20.8209ZM5.00071 22.2839C5.01193 22.794 5.15584 23.2923 5.41818 23.7299L8.84875 21.6729C8.94362 21.8311 8.99568 22.0114 8.99974 22.1959L5.00071 22.2839ZM5.40193 23.7023L7.05983 26.5704L10.5229 24.5686L8.865 21.7005L5.40193 23.7023ZM7.0605 26.5715C7.45042 27.2451 8.0917 27.7364 8.84357 27.9375L9.87732 24.0734C10.1493 24.1462 10.3812 24.3239 10.5222 24.5675L7.0605 26.5715ZM8.84357 27.9375C9.59546 28.1387 10.3964 28.0332 11.0705 27.6443L9.07185 24.1794C9.31564 24.0388 9.60533 24.0006 9.87732 24.0734L8.84357 27.9375ZM11.0707 27.6442L13.9425 25.9872L11.9435 22.5226L9.07166 24.1796L11.0707 27.6442ZM13.8961 26.0132C14.241 25.8262 14.5451 25.5721 14.7903 25.2655L11.6664 22.7671C11.7552 22.6561 11.8652 22.5642 11.9899 22.4966L13.8961 26.0132ZM14.7903 25.2655C15.0354 24.9589 15.2166 24.6064 15.3232 24.2288L11.4737 23.142C11.5122 23.0055 11.5777 22.878 11.6664 22.7671L14.7903 25.2655ZM15.3232 24.2288C15.4299 23.8511 15.4597 23.4559 15.4111 23.0665L11.4419 23.5624C11.4243 23.4216 11.4351 23.2787 11.4737 23.142L15.3232 24.2288ZM15.4111 23.0665C15.3624 22.6771 15.2362 22.3014 15.0399 21.9615L11.5761 23.9621C11.5052 23.8391 11.4595 23.7033 11.4419 23.5624L15.4111 23.0665ZM15.0399 21.9615C14.8436 21.6215 14.5812 21.3246 14.2683 21.0879L11.8552 24.2781C11.7422 24.1925 11.6472 24.0851 11.5761 23.9621L15.0399 21.9615ZM14.2683 21.0879C13.9554 20.8512 13.5982 20.6795 13.2177 20.5831L12.2352 24.4606C12.0976 24.4257 11.9684 24.3636 11.8552 24.2781L14.2683 21.0879ZM13.2177 20.5831C12.8372 20.4868 12.4413 20.4676 12.0534 20.5267L12.6563 24.481C12.516 24.5024 12.3729 24.4955 12.2352 24.4606L13.2177 20.5831ZM12.0534 20.5267C11.6656 20.5859 11.2934 20.7221 10.9589 20.9275L13.0522 24.336C12.9312 24.4104 12.7965 24.4597 12.6563 24.481L12.0534 20.5267ZM11.0046 20.9003L10.0845 21.4322L12.0865 24.8952L13.0065 24.3633L11.0046 20.9003ZM13.0205 23.6696C14.7955 16.8805 20.9614 11.8748 28.3127 11.8748V7.87484C19.0958 7.87484 11.3741 14.1535 9.15056 22.6577L13.0205 23.6696ZM28.3127 11.8748C29.7073 11.8748 31.0525 12.0524 32.3311 12.3873L33.3445 8.51774C31.7344 8.0961 30.0486 7.87484 28.3127 7.87484V11.8748ZM32.2837 12.3742C32.6597 12.4826 33.0537 12.5149 33.4425 12.4689L32.9727 8.49656C33.1135 8.47992 33.256 8.4916 33.3919 8.53078L32.2837 12.3742ZM33.4425 12.4689C33.8312 12.4229 34.2068 12.2998 34.5473 12.1065L32.5731 8.62763C32.6964 8.55772 32.8322 8.51318 32.9727 8.49656L33.4425 12.4689ZM34.5473 12.1065C34.8877 11.9133 35.1861 11.6541 35.425 11.3439L32.2557 8.90346C32.3421 8.79128 32.45 8.69751 32.5731 8.62763L34.5473 12.1065ZM35.425 11.3439C35.6639 11.0337 35.8382 10.6789 35.938 10.3005L32.0701 9.28082C32.1062 9.14405 32.1692 9.01574 32.2557 8.90346L35.425 11.3439ZM35.938 10.3005C36.0378 9.92203 36.0609 9.52741 36.006 9.13982L32.0455 9.70063C32.0257 9.56043 32.0341 9.4177 32.0701 9.28082L35.938 10.3005ZM36.006 9.13982C35.9511 8.75222 35.8193 8.37954 35.6184 8.04366L32.1857 10.0971C32.1131 9.97565 32.0654 9.84085 32.0455 9.70063L36.006 9.13982ZM35.6184 8.04366C35.4176 7.70791 35.1516 7.41546 34.8359 7.18371L32.4688 10.4081C32.3545 10.3242 32.2583 10.2184 32.1857 10.0971L35.6184 8.04366ZM34.8359 7.18371C34.5201 6.9519 34.1614 6.78579 33.781 6.69478L32.8503 10.585C32.7129 10.5521 32.5831 10.4921 32.4688 10.4081L34.8359 7.18371ZM33.8223 6.70513C32.0597 6.24353 30.2104 6 28.3127 6V10C29.8677 10 31.3765 10.1995 32.809 10.5746L33.8223 6.70513Z" fill="white" mask="url(#path-2-inside-1)"/>
<path d="M39.8517 16.0823L39.8517 15.0637V12.8507L39.7677 12.7678L39.8517 16.0823L39.8517 16.0823ZM39.8517 16.0823C39.8517 16.0658 39.8583 16.05 39.8699 16.0384C39.8815 16.0268 39.8972 16.0202 39.9138 16.0202C39.9304 16.0202 39.9462 16.0268 39.9578 16.0384C39.9694 16.05 39.9759 16.0658 39.976 16.0823L39.9138 16.0823L39.8517 16.0823ZM44.6066 37.1216L44.4971 37.0584C44.4972 37.0582 44.4973 37.058 44.4975 37.0578C48.8298 29.5534 47.3572 20.2744 41.4662 14.4427C41.4576 14.4342 41.449 14.4257 41.4404 14.4172L39.976 12.9732L42.1425 12.8303H40.0163L41.5292 14.3272L41.5551 14.3529C47.4847 20.2199 48.98 29.5468 44.607 37.121C44.6068 37.1212 44.6067 37.1214 44.6066 37.1216ZM44.6066 37.1216L44.4971 37.0584C43.6771 38.4788 42.6988 39.7516 41.5978 40.8653C41.5976 40.8655 41.5973 40.8658 41.5971 40.866L41.5858 40.8775L41.5776 40.8863L41.5748 40.8893C41.5757 40.8883 41.5767 40.8874 41.5776 40.8864C41.5827 40.8816 41.5886 40.8777 41.595 40.8748C41.5976 40.8736 41.6003 40.8726 41.6031 40.8718C41.6034 40.8717 41.6037 40.8716 41.6041 40.8716C41.609 40.8702 41.6141 40.8695 41.6192 40.8693C41.6274 40.8692 41.6358 40.8706 41.6437 40.8738C41.6514 40.8769 41.6585 40.8815 41.6645 40.8874C41.6705 40.8934 41.6752 40.9004 41.6784 40.9081C41.6816 40.9159 41.6831 40.9242 41.683 40.9325C41.683 40.9376 41.6823 40.9427 41.681 40.9476C41.6809 40.948 41.6808 40.9483 41.6807 40.9487C41.68 40.9514 41.679 40.9542 41.6778 40.9568C41.675 40.9633 41.6712 40.9692 41.6664 40.9743C41.6655 40.9753 41.6645 40.9763 41.6635 40.9772L41.6665 40.9744L41.6756 40.9657L41.6867 40.9545L41.6873 40.9539C42.7966 39.8319 43.781 38.5515 44.6066 37.1216ZM43.2071 12.7677L43.2071 12.7678L43.2057 12.8301C43.1894 12.8297 43.1739 12.823 43.1625 12.8113C43.1511 12.7997 43.1448 12.784 43.1448 12.7678C43.1448 12.7514 43.1512 12.7358 43.1625 12.7241C43.1739 12.7125 43.1894 12.7058 43.2057 12.7054L43.2071 12.7677L43.2071 12.7677ZM43.2085 12.7052H42.1425H39.9135L39.9134 11.8306V12.7052H39.8898L39.8517 12.6675V12.7052H39.8508H39.7042L39.7677 12.7678L43.2085 12.7052Z" fill="white" stroke="white" stroke-width="2"/>
<path d="M32.5892 43.4638C32.5894 43.4639 32.5896 43.464 32.5898 43.4641L32.5892 43.4638ZM33.769 48.0812L33.7691 48.0812L33.769 48.0812Z" fill="white" stroke="white" stroke-width="2"/>
<path d="M23.6943 35.1195C23.2747 35.3106 22.4209 35.7913 24.0029 36.7558C26.578 38.3309 30.6862 37.5882 34.3543 32.6538C34.3884 32.6061 34.4269 32.5585 34.4551 32.5126C34.4927 32.4598 34.531 32.4172 34.5703 32.3696C38.2413 27.4267 36.7471 22.3656 35.3626 21.2619C34.3218 20.4312 32.3058 22.9786 32.3058 22.9786C32.3058 22.9786 30.6419 25.1061 29.247 28.4883C28.4905 30.3217 28.0021 31.0862 27.3726 31.9585C26.6262 32.9894 25.6745 34.0368 23.6943 35.1195Z" fill="white"/>
<path d="M21.6606 34.7564C24.2098 33.5613 27.1882 30.1538 28.526 25.9998C29.4696 23.052 31.8161 21.1646 33.6544 20.0881C33.5641 19.7498 33.2939 19.597 33.2939 19.597C31.2161 18.0513 26.5561 18.6117 22.8842 23.5449C22.8418 23.5994 22.8203 23.647 22.7787 23.7015C22.7469 23.7461 22.7035 23.787 22.6674 23.8374C19.1293 28.5964 19.7505 33.0562 21.6606 34.7564Z" fill="white"/>
</svg>
