<svg width="56" height="56" viewBox="0 0 56 56" fill="none" xmlns="http://www.w3.org/2000/svg">
<path d="M56 28C56 43.464 43.464 56 28 56C12.536 56 0 43.464 0 28C0 12.536 12.536 0 28 0C43.464 0 56 12.536 56 28Z" fill="#582C0D"/>
<path d="M29.2594 19.755C29.2215 19.7801 29.185 19.8073 29.1502 19.8366C28.9847 19.9704 28.8192 20.1107 28.6735 20.2575L28.6437 20.2902C28.5146 20.4403 28.3955 20.5969 28.2796 20.7568L28.2597 20.7862C28.2068 20.8776 28.1571 20.969 28.1075 21.0701L28.081 21.1256C28.0377 21.2063 28.0011 21.2903 27.9718 21.3769C27.9387 21.4748 27.9089 21.5727 27.8857 21.6706L27.8493 21.8174C27.84 21.8649 27.8333 21.9128 27.8294 21.961V21.9969C27.8014 22.2005 27.8014 22.4069 27.8294 22.6104V22.6659C27.8393 22.7428 27.8536 22.8191 27.8724 22.8944V22.9335C27.8923 23.002 27.9122 23.0706 27.9287 23.113C27.9736 23.249 28.0324 23.3803 28.1042 23.5046L28.1406 23.5699C28.2104 23.6836 28.2878 23.7926 28.3723 23.8962L28.3988 23.9256L28.4319 23.9615C28.4993 24.0352 28.5712 24.105 28.647 24.1703L28.6801 24.1964C28.7404 24.2465 28.8034 24.2934 28.8688 24.3368C28.9735 24.4072 29.0843 24.4683 29.1999 24.5195L29.2396 24.5358C29.3014 24.5625 29.3657 24.5833 29.4316 24.5978H29.4481C29.5148 24.6114 29.5836 24.6106 29.6499 24.5954C29.7162 24.5802 29.7784 24.5509 29.8321 24.5097C29.8829 24.4705 29.9248 24.4212 29.9551 24.365C29.9853 24.3087 30.0032 24.2469 30.0076 24.1834V24.0529C30.0076 24.0137 30.0076 23.9615 30.0076 23.8995L30.034 23.6351L30.0705 23.4328C30.0936 23.3294 30.128 23.2287 30.1731 23.1326C30.1896 23.1032 30.2062 23.0738 30.2194 23.0477L30.2426 23.0184L30.279 22.9727L30.3419 22.9107L30.428 22.8487H30.4478L30.5604 22.7769C30.6138 22.7491 30.6658 22.7186 30.7159 22.6855C30.7878 22.6577 30.8566 22.6227 30.9212 22.5811L31.037 22.5223L31.2257 22.4244L31.6097 22.2156C31.9644 21.999 32.2827 21.7293 32.5531 21.416C32.8387 21.0862 33.0568 20.705 33.1953 20.2934C33.3241 19.9143 33.378 19.5145 33.3542 19.1154C33.3342 18.7791 33.2582 18.4483 33.1291 18.1364C32.953 17.7067 32.6762 17.3243 32.3214 17.0203C32.2303 16.9419 32.1329 16.871 32.0301 16.8082L31.9871 16.7821C31.9344 16.7484 31.879 16.7189 31.8216 16.6939C31.7582 16.6692 31.6901 16.6584 31.622 16.6623C31.554 16.6663 31.4876 16.6848 31.4277 16.7168C31.3664 16.7502 31.3137 16.797 31.2735 16.8535C31.2334 16.9101 31.2068 16.9749 31.1959 17.0431L31.1728 17.1769C31.1728 17.2096 31.1728 17.252 31.1496 17.3009L31.1198 17.4478C31.0632 17.735 30.9846 18.0175 30.8848 18.293C30.8374 18.4224 30.7775 18.5469 30.706 18.665C30.6459 18.7618 30.5748 18.8516 30.4942 18.9326C30.4104 19.0159 30.3208 19.0934 30.226 19.1643C30.1201 19.2426 30.0009 19.3242 29.8685 19.4058L29.6666 19.5037L29.6136 19.5363L29.5309 19.5886L29.3554 19.706L29.2594 19.755ZM29.5011 14.0017C29.6148 14.539 29.6238 15.0927 29.5276 15.6333C29.4179 16.224 29.1931 16.7881 28.8655 17.2944C28.5573 17.7787 28.1742 18.2125 27.7301 18.5802L27.2402 18.9489L26.9985 19.1252L26.8363 19.2394C26.7574 19.3105 26.6709 19.3729 26.5781 19.4254C26.5107 19.4847 26.44 19.5403 26.3663 19.5918C26.3232 19.6342 26.2736 19.6767 26.2239 19.7158L26.1875 19.7452C26.1553 19.7818 26.121 19.8167 26.0849 19.8496C26.0849 19.8496 26.065 19.8692 26.0551 19.8823L25.9691 19.99C25.9561 20.0168 25.9418 20.0429 25.926 20.0683L25.8995 20.114V20.1466C25.8995 20.189 25.8731 20.2282 25.8532 20.2739C25.8035 20.4341 25.7725 20.5995 25.7605 20.7666V21.0669L25.7473 21.4617C25.7473 21.5564 25.7473 21.638 25.7671 21.6967L25.7903 21.8762C25.7987 21.9437 25.7925 22.0121 25.7721 22.0771C25.7517 22.142 25.7175 22.2019 25.6718 22.2528C25.6261 22.3037 25.5699 22.3445 25.507 22.3724C25.4441 22.4003 25.376 22.4147 25.307 22.4146H25.2706C25.1845 22.4065 25.0992 22.3912 25.0157 22.369H24.966C24.7953 22.3243 24.6291 22.2642 24.4695 22.1895C24.3696 22.1425 24.2724 22.0902 24.1782 22.0328L24.1319 22.0067C24.0168 21.9351 23.9062 21.8566 23.8008 21.7718L23.7413 21.7261L23.7115 21.7C23.5772 21.5776 23.4512 21.4468 23.3341 21.3084L23.2745 21.23C23.1548 21.0785 23.0506 20.9156 22.9633 20.7438C22.9302 20.6818 22.8905 20.5969 22.8508 20.5056L22.8276 20.4501C22.7887 20.3542 22.7556 20.2561 22.7283 20.1564L22.7051 20.0748C22.6262 19.8052 22.5839 19.5265 22.5794 19.2459V19.1774C22.5759 19.1154 22.5759 19.0533 22.5794 18.9914L22.5992 18.7825C22.5992 18.6422 22.6323 18.5019 22.6588 18.3583C22.6799 18.2374 22.7109 18.1185 22.7515 18.0026L22.778 17.9177C22.8243 17.7741 22.874 17.6371 22.9269 17.5L22.9435 17.4641C23.066 17.2193 23.205 16.9746 23.3506 16.7396L23.3771 16.7005C23.5559 16.4655 23.7512 16.2371 23.9531 16.0184C23.9924 15.9735 24.0344 15.931 24.0789 15.8912L24.2014 15.7769C24.2709 15.7117 24.347 15.6464 24.4232 15.5779L24.5556 15.4604L24.5854 15.4343L24.87 15.2091C25.0455 15.0623 25.2011 14.9187 25.3401 14.7816C25.4652 14.6559 25.5814 14.5218 25.6877 14.3802C25.7921 14.2382 25.8798 14.0849 25.9492 13.9233C26.0299 13.7327 26.092 13.5349 26.1346 13.3327C26.2198 12.9151 26.2729 12.4919 26.2935 12.0665C26.2935 11.9947 26.2935 11.9196 26.2935 11.8511C26.2935 11.7826 26.2935 11.7108 26.2935 11.6586V11.4725C26.2951 11.3986 26.3139 11.326 26.3485 11.2603C26.3831 11.1947 26.4325 11.1377 26.493 11.0939C26.5535 11.0501 26.6233 11.0205 26.6972 11.0075C26.7711 10.9945 26.847 10.9984 26.9191 11.0189C26.9996 11.0398 27.0782 11.0671 27.1541 11.1005L27.217 11.1266C27.3674 11.1915 27.5124 11.2679 27.6507 11.3551C28.1942 11.6986 28.6478 12.1637 28.9748 12.7126C29.2214 13.1106 29.3992 13.5462 29.5011 14.0017ZM43.8378 32.5311C44.0389 31.7342 44.0532 30.9026 43.8797 30.0993C43.7062 29.2961 43.3493 28.5425 42.8363 27.8955C42.3233 27.2485 41.6675 26.7252 40.9187 26.3653C40.17 26.0054 39.3479 25.8183 38.5149 25.8183H16.4422C16.2462 25.818 16.0522 25.8572 15.8721 25.9334C15.692 26.0096 15.5296 26.1212 15.3948 26.2614C15.26 26.4016 15.1556 26.5675 15.0881 26.7489C15.0206 26.9303 14.9914 27.1233 15.0022 27.3162C15.1757 29.9088 15.6262 32.476 16.3462 34.9754C16.8872 36.8508 17.9529 38.5381 19.4214 39.8443H17.5213C17.0968 39.8443 16.6897 40.0106 16.3896 40.3065C16.0894 40.6024 15.9208 41.0037 15.9208 41.4222C15.9208 41.8406 16.0894 42.242 16.3896 42.5379C16.6897 42.8338 17.0968 43 17.5213 43H35.5224C35.9469 43 36.354 42.8338 36.6542 42.5379C36.9543 42.242 37.1229 41.8406 37.1229 41.4222C37.1229 41.0037 36.9543 40.6024 36.6542 40.3065C36.354 40.0106 35.9469 39.8443 35.5224 39.8443H33.619C34.635 38.9401 35.4625 37.8494 36.0554 36.6332H38.5149C39.7393 36.6332 40.9284 36.2293 41.893 35.486C42.8576 34.7426 43.5422 33.7024 43.8378 32.5311ZM40.6136 31.7414C40.5006 32.2062 40.232 32.62 39.8513 32.916C39.4705 33.212 38.9998 33.373 38.5149 33.373H37.1147C37.4519 31.9669 37.7072 30.5428 37.8793 29.1078H38.5149C38.8434 29.1076 39.1676 29.1812 39.4629 29.3231C39.7582 29.4649 40.0169 29.6712 40.2192 29.9264C40.4215 30.1815 40.5622 30.4787 40.6305 30.7955C40.6989 31.1122 40.6931 31.4402 40.6136 31.7544V31.7414Z" fill="white"/>
</svg>
